<?xml version="1.0" encoding="utf-8"?>
<!-- Generator: Adobe Illustrator 21.1.0, SVG Export Plug-In . SVG Version: 6.00 Build 0)  -->
<svg version="1.1" id="Слой_2" xmlns="http://www.w3.org/2000/svg" xmlns:xlink="http://www.w3.org/1999/xlink" x="0px" y="0px"
	 viewBox="0 0 1590 1002" style="enable-background:new 0 0 1590 1002;" xml:space="preserve">
<style type="text/css">
	.st0{fill:none;stroke:#000000;stroke-width:2;stroke-miterlimit:10;}
	.st1{fill:#E63E25;}
</style>
<path class="st0" d="M942.6,519.6l-57.9-2.4v2.4H757.1l-1.9-10.5l-330.3-16.7c0,0-13.4,4.8-19.6,4.8s-10.1-4.8-10.1-4.8l-57.9-5.3
	l-7.2,18.7l-23.5,3.8v-22.5L8.3,462.3l-5.7-19.6L130.2,52.6l860.6,64.1c0,0,14.3-21.1,23.5-26.8c9.1-5.7,17.2,0.5,21.5,1.9
	c4.2,1.5,8.6,2.4,8.6,2.4l-3.3-31.1c0,0,6.2-15.8,17.8-16.3c11.5-0.5,36.3,6.2,36.3,6.2s2.4-21.5,9.1-26.2
	c6.8-4.8,31.1-7.2,31.1-7.2s14.3-8.9,18.2-11.1c3.8-2.3,14.8,0.7,20.1,2.5c5.3,1.9,18.2,12.9,18.2,12.9l11.5-7.2
	c0,0,1.5,51.7,5.7,63.6c4.2,11.9,14.3,31.5,14.3,33.9s-5.3,7.2-5.3,7.2s-0.5,4.8,5.3,6.8c5.7,1.9,10.1,2.4,10.1,2.4s6.8,5.7,7.2,9.1
	c0.4,3.4,8.1,6.2,11.9,7.7s8.6,1.5,8.6,1.5s-4.8-5.7,0-9.5s19.6-14.3,22.9-12.9c3.3,1.5,6.2,3.3,4.2,5.7c-2,2.4-3,11,0.7,13.9
	s11.4,0.5,11.4,0.5s3.8,16.3-2.9,15.2c-6.8-0.9-9.5,2.4-12.5,8.1c-2.9,5.7-11,21.5-14.8,22.5c-3.8,0.9-5.7-4.2-6.2-6.8
	c-0.5-2.5-3.3-1.9-8.1,2.9c-4.8,4.8-9.5,11-13.9,10.1c-4.2-0.9-0.9-5.7-21.1-0.5c-20.1,5.3-22,9.5-22,9.5s-14.8,0.9-20.1,3.3
	s-5.3,12.5,3.8,15.8s12.9,16.3,7.7,18.2c-5.3,1.9-11.9-1.5-16.7,4.2c-4.8,5.7-7.2,12.5-7.2,12.5s-4.2-7.7-11-4.2
	c-6.8,3.4-14.3,17.8-9.1,19.6c5.3,1.9,15.8,3.3,14.8,7.2c-0.9,3.8-8.1,4.8-12.5,2.9c-4.2-1.9-8.6-17.2-8.1-20.5
	s-18.7,18.2-18.2,23.9c0.5,5.7,7.2,14.8,7.2,14.8s-0.3,10.2,3.8,14.3c6.2,6.2,3.8,12.5,3.8,12.5s-13.9-20.5-22-4.8
	c-8.1,15.8-4.8,18.7-2.4,22.5s2.4,9.1,0.9,12.5c-1.5,3.3-0.9,11,4.2,12.5c5.3,1.5,11,0.5,13.4-0.9c2.4-1.5,5.3-0.5,8.1,0.9
	c2.9,1.5,7.7,8.1,14.3,2.4c6.8-5.7,8.1-8.1,6.8-14.3c-1.5-6.2-9.5-8.1-9.5-8.1l16.3-2.4c0,0,5.3,18.7,11.5,21.5
	c6.2,2.9,32.5,9.1,36.8,14.3c4.2,5.3,8.6,15.2,14.8,20.1c6.2,4.8,8.1,8.1,8.1,8.1s-3.3,10.5,1.9,21.5c5.3,11,20.5,30.6,22,35.4
	c1.5,4.8,14.8,11.9,12.9,15.8c-1.9,3.8-6.8,7.7-6.8,7.7s5.7,9.1,3.3,11.5c-2.4,2.4-12.5,7.7-12.5,7.7s1.9,19.1-2.4,19.6
	c-4.2,0.5-5.7-5.7-10.1-4.8c-4.2,0.9-10.5,4.8-4.2,11.9s19.6,19.6,19.6,19.6h4.8c0,0,10.1,11.5,13.9,11s11.5-7.2,14.8-4.8
	s15.2,9.5,15.2,16.7s4.8,14.8,8.1,22.5c3.3,7.7-0.9,26.8-4.2,31.1c-3.3,4.2-5.7,9.1,5.6,21.1c11.3,11.9,32.7,33.5,63.3,34.5
	c30.6,0.9,37.2,2.4,40.1,3.3c2.9,0.9,12.5,11.9,12.5,11.9s4.8-5.3,15.2-12.5c10.5-7.2,39.2-11,61.6-18.2
	c22.5-7.2,32.1-9.5,36.8-19.6c4.8-10.1-0.9-36.3,0-41.1s4.2-9.5,4.2-9.5s-2.9,1.9-6.8-3.3c-3.8-5.3-3.8-18.2-6.8-21.1
	s-12.5-2.4-14.8,4.2c-2.4,6.8-1.5,27.7-1.5,27.7s-6.8-6.2-4.8-30.1c1.9-23.9,0.5-49.3-5.7-61.6c-6.2-12.5-30.6-24.9-37.8-18.2
	s-6.8,17.8-5.3,22s-24.9-26.2-24.9-26.2s9.1-17.8,41.1-7.3c32.1,10.5,55,30.6,66.9,55.5s34.8,115.3,31.1,159.3
	c-3.8,44-16.3,47.8-19.1,56.8s-7.7,41.1-11.5,45.4c-3.8,4.2-11,4.2-11.5,0s10.5-9.5,11.9-18.2c1.5-8.6,0-17.8,2.9-23.8
	s10.5-11.5,7.2-18.2s-9.5-16.7-18.7-13.9s-58.3,8.1-73.7,13.4c-15.2,5.3-28.6,8.1-32.1,11.5c-3.4,3.4-5.3,11.9-6.8,11.9
	s-2.4-10.5-4.2-14.3c-1.9-3.8-4.8-2.4-11.5-0.5c-6.8,1.9-10.5-0.9-15.8-2.4s-7.2,0-13.9,9.5c-6.8,9.5-25.3,4.8-29.7,7.2
	c-4.2,2.4-9.5,23.5-20.5,27.7s-48.8,6.8-57.9,8.1c-9.1,1.5-20.5,11.9-20.5,13.9s-10.5,3.3-15.2,7.2c-4.8,3.8-16.3,10.5-20.5,10.5
	s-6.8,6.2-8.1,10.1c-1.3,3.8-14.3,12.9-16.3,13.4c-1.9,0.5-14.3-2.9-18.7,0c-4.2,2.9-11,12.9-13.4,14.8c-2.4,2-26.8,0-26.8,0
	s-7.7,6.2-11,7.2c-3.3,0.9-11.5-2.9-7.2-5.7s11-7.2,12.5-8.1c1.5-0.9,4.2,4.2,9.5,3.3s14.8-6.8,23.5-13.9c8.6-7.2,16.3-0.5,22-5.3
	s4.8-7.2,7.7-9.1c2.9-1.9,6.2,2.9,10.1-1.5c3.8-4.2,3.3-10.5,8.6-14.3c5.3-3.8,35.9-18.7,39.2-22.5s-1.5-4.2,2.9-11
	c4.2-6.8,7.7-11,7.7-11s-3.8-6.8-5.3-12.5s1.5-6.2,3.3-11s-3.3-8.1-2.9-11.9s9.1-7.7,8.6-11s-2.9-7.2-5.3-10.1
	c-2.4-2.9-9.1-5.7-4.2-9.1c4.8-3.3,14.8-0.9,13.9-6.2s-4.2-13.4-11.9-11.9c-7.7,1.5-22.5-5.7-27.3-7.2s-6.2,0-3.8,15.2
	s0.5,12.5-6.8,6.8c-7.2-5.7-9.5,0.5-10.1,11.9c-0.5,11.5-0.9,19.6-3.8,20.1s-1.5-2.9-8.1-6.2c-6.8-3.3-15.2-6.8-13.4-0.9
	c1.9,5.7,7.7,10.5,5.7,12.9c-1.9,2.4-9.1,5.3-13.9,2.4c-4.8-2.9-11-4.8-10.5,1.9c0.5,6.8,4.8,16.7,2.4,19.1
	c-2.4,2.4-6.8-2.4-7.7-9.1c-0.9-6.8,0.9-12.5-5.3-14.8c-6.2-2.4-13.9-2.4-12.9,5.3c0.9,7.7,3.3,16.7,3.3,16.7s-4.2,3.3-5.7-0.9
	s-4.2-13.9-5.7-11s-0.5,13.4-2.9,16.3c-2.4,2.9-9.1-1.5-7.2,2.9c1.9,4.2,7.7,16.7,7.2,20.5s-11.5,0-16.7,5.3
	c-5.3,5.3-12.5,15.2-23.5,16.7s-19.6-3.3-25.8-2.9c-6.2,0.5-19.6,6.8-19.6,6.8s-6.2-64-7.2-66.9c-0.9-2.9,5.3-20.5,5.7-25.3
	s-29.7-13.9-31.5-15.8c-1.9-1.9-16.3-37.2-23.9-43.5c-7.7-6.2-31.5-18.2-31.5-18.2l-1.5-8.1l-3.3-4.2v-9.1c0,0-5.3-9.5-1.9-10.5
	c3.4-0.9,4.8-2.9,2.9-5.7c-1.9-2.9,1.5-4.8,2.9-7.7c1.5-2.9-0.9-4.2-1.9-7.2c-0.9-2.9-1.9-10.1-0.5-13.9c1.3-3.8,1.5-3.8,1.5-3.8
	l-19.1,1.5L942.6,519.6z"/>
<path class="st0" d="M1282.1,925.5c-8.6,0-52.1,0.5-62.7,6.8c-10.5,6.2-12.5,12.9-13.4,15.8s0,5.3,0,5.3s-19.1-10.5-23.5-18.2
	c-4.2-7.7-7.7-13.9-7.7-13.9s5.7-2.9,16.3,0c10.5,2.9,9.5,4.6,15.2-1.3c5.7-6,14.3-22.1,22-27.4c7.7-5.3,0.9-7.7,8.1-16.3
	s30.1-21.5,36.3-24.4s9.1-7.7,9.1-7.7l6.2,10.1l10.1-2.9l6.2,6.2v28.9c0,0,1.5,3.7,8.6,4.6c7.2,0.9,12.5,1.5,12.5,1.5
	s-2.4,11.9,2.9,11.9s8.1-3.3,10.5-9.5s1.9-14.3,7.2-11.5c5.3,2.8,7.7,15.2,5.3,18.2s-1.9,24.4-1.9,24.4s-15.2,2.9-38.3,0.9
	C1288.2,924.8,1282.1,925.5,1282.1,925.5z"/>
<path class="st0" d="M1557.9,950.9c5.7,11,13.9,26.2,7.7,33.9c-6.2,7.7-17.8,12.2-32.5,9.9c-14.8-2.3-34.8-1.3-41.1-3.2
	c-6.2-1.9-36.8-22-43.1-23.9c-6.2-1.9-13.4-1.9-16.3-5.7c-2.9-3.8-9.1-15.8-2.4-13.4c6.8,2.4,10.1,10.1,14.3,11.9
	c4.2,1.9,15.8-0.5,23.8-0.5c8.1,0,17,3.8,29,0.9s23.1-1.1,30.2-12.7c7.2-11.7,13.9-22.1,9.5-29.8c-4.2-7.7-9.5-10.5-9.1-14.3
	s5.3-1.5,8.6,3.8S1557.9,950.9,1557.9,950.9z"/>
<path class="st0" d="M1185.5,776.8c0.9,1.7,4.8,7.4,0,8.2c-1.7,0.3-5.3-3.6-6.2-4.9c-1.9-2.8-2-5.7-0.1-8.1c1.9-2.5,5.8-2.8,5.3,1.5
	L1185.5,776.8z"/>
<polygon class="st1" points="1110.3,301.3 1083.7,297.9 1065.9,317.9 1060.8,291.6 1036.3,280.8 1059.8,267.9 1062.5,241.3 
	1082,259.6 1108.2,253.9 1096.8,278.2 "/>
</svg>
